Coordinates
version=1
nRows=19
nColumns=24
inDegrees=yes

Units are S.I. units (second, meters, Newtons, ...)
Angles are in degrees.

endheader
time	pelvis_tilt	pelvis_list	pelvis_rotation	pelvis_tx	pelvis_ty	pelvis_tz	hip_flexion_r	hip_adduction_r	hip_rotation_r	knee_angle_r	ankle_angle_r	subtalar_angle_r	mtp_angle_r	hip_flexion_l	hip_adduction_l	hip_rotation_l	knee_angle_l	ankle_angle_l	subtalar_angle_l	mtp_angle_l	lumbar_extension	lumbar_bending	lumbar_rotation
      7.24000000	      2.78279249	      4.34299792	      5.40705626	      0.47398273	      1.06611830	      0.16086275	     -5.97029515	      1.77572906	     -2.46176344	     -0.74478431	      8.37422737	    -17.97837571	      0.00000000	     14.52233511	      3.38352750	     -2.17024261	    -59.64650861	     -8.96199333	    -36.94648023	      0.00000000	    -14.72497344	     -4.78647118	     -4.10015300
      7.25000000	      2.57893470	      4.51448753	      5.10917550	      0.48501559	      1.06560825	      0.16067829	     -6.35638899	      1.61335308	     -2.32872597	     -0.79303950	      8.82433083	    -18.06873551	      0.00000000	     15.92884812	      3.67807160	     -2.19563634	    -58.74962600	     -6.90285813	    -36.49410227	      0.00000000	    -14.81861087	     -5.03662538	     -3.73528157
      7.26000000	      2.44428379	      4.59691418	      4.86010195	      0.49598988	      1.06497616	      0.16038406	     -6.79924301	      1.56359991	     -2.29813965	     -0.84141305	      9.22613194	    -18.21361598	      0.00000000	     17.19476423	      3.86924278	     -2.17102181	    -57.60653523	     -5.07234979	    -35.83282052	      0.00000000	    -15.00046590	     -5.15857723	     -3.42543178
      7.27000000	      2.38918388	      4.59309868	      4.65985909	      0.50695922	      1.06425874	      0.15998813	     -7.33724443	      1.62903002	     -2.39506689	     -0.84502456	      9.57061559	    -18.40045356	      0.00000000	     18.29264170	      3.95828150	     -2.10118267	    -56.20569290	     -3.42522799	    -34.97234977	      0.00000000	    -15.27456883	     -5.15666432	     -3.17939682
      7.28000000	      2.41935219	      4.53458901	      4.51253154	      0.51796687	      1.06350983	      0.15949792	     -7.99328151	      1.78067958	     -2.64263751	     -0.78613536	      9.85395304	    -18.61268418	      0.00000000	     19.19257362	      3.98266691	     -1.98574333	    -54.51947948	     -1.96823074	    -33.94895806	      0.00000000	    -15.64497217	     -5.07384327	     -2.99289948
      7.29000000	      2.51155839	      4.37414180	      4.39973900	      0.52903366	      1.06271123	      0.15893112	     -8.74530868	      2.06583686	     -3.05086259	     -0.65033503	     10.03657938	    -18.80520535	      0.00000000	     19.91734763	      3.88697774	     -1.84262788	    -52.55546400	     -0.68378973	    -32.82488241	      0.00000000	    -16.07441103	     -4.85139887	     -2.83503504
      7.30000000	      2.58753106	      4.19483690	      4.25114738	      0.54021226	      1.06183359	      0.15841771	     -9.49695065	      2.37842113	     -3.53155735	     -0.48386710	     10.25330618	    -18.92427758	      0.00000000	     20.51377187	      3.73021531	     -1.78054826	    -50.26714821	      0.50017149	    -31.54741506	      0.00000000	    -16.46040146	     -4.63731174	     -2.62992968
      7.31000000	      2.71598036	      4.00464293	      4.14121666	      0.55153075	      1.06099568	      0.15783110	    -10.34086554	      2.72241235	     -4.17753260	     -0.26062761	     10.39680863	    -18.97543927	      0.00000000	     20.88884123	      3.56187104	     -1.69047117	    -47.63291053	      1.42336467	    -30.27992447	      0.00000000	    -16.89114126	     -4.40042623	     -2.45911244
      7.32000000	      2.82499966	      3.80896067	      4.01911327	      0.56302122	      1.06013042	      0.15723537	    -11.18094894	      3.07052753	     -4.88272451	     -0.02681612	     10.54346289	    -18.91948773	      0.00000000	     21.10472156	      3.37015507	     -1.64029471	    -44.64498244	      2.13525168	    -28.99242922	      0.00000000	    -17.27010514	     -4.17048559	     -2.27208943
      7.33000000	      2.93625456	      3.64450712	      3.89410545	      0.57471888	      1.05927321	      0.15659900	    -12.04273534	      3.37891865	     -5.56058747	      0.20716771	     10.63580617	    -18.90971816	      0.00000000	     21.11236810	      3.21023293	     -1.59878595	    -41.27616313	      2.56774210	    -27.83356010	      0.00000000	    -17.62444599	     -3.98437504	     -2.09490978
      7.34000000	      2.95996116	      3.42104385	      3.68500357	      0.58666249	      1.05829445	      0.15605410	    -12.79929008	      3.70908623	     -6.20372380	      0.39301040	     10.77531294	    -18.61341317	      0.00000000	     21.03925950	      2.93024703	     -1.73181822	    -37.60873251	      2.96069701	    -26.44051591	      0.00000000	    -17.81660234	     -3.77034425	     -1.78264747
      7.35000000	      2.96200457	      3.26770078	      3.41347098	      0.59890704	      1.05727766	      0.15549120	    -13.54523428	      3.92152757	     -6.61536400	      0.53878531	     10.84395740	    -18.48058061	      0.00000000	     20.76779706	      2.71872731	     -1.93811263	    -33.58975857	      3.07519684	    -25.22043308	      0.00000000	    -17.93628593	     -3.66012636	     -1.41910704
      7.36000000	      2.93888667	      2.99950183	      3.06103063	      0.61138449	      1.05614407	      0.15497108	    -14.23292517	      4.19689152	     -6.85749846	      0.59266405	     10.91039056	    -18.24167511	      0.00000000	     20.39778775	      2.35234181	     -2.29811863	    -29.40848014	      3.21547586	    -23.70029932	      0.00000000	    -17.97440687	     -3.44368169	     -0.93680983
      7.37000000	      2.85689999	      2.62596886	      2.67923015	      0.62413729	      1.05483941	      0.15438701	    -14.82296119	      4.52605728	     -7.04579262	      0.53896692	     10.94542739	    -17.85453763	      0.00000000	     20.00562606	      1.87032850	     -2.80918146	    -25.17535227	      3.45049436	    -21.78168612	      0.00000000	    -17.88383069	     -3.10531381	     -0.41743971
      7.38000000	      2.82465701	      2.20688597	      2.19574533	      0.63714594	      1.05349721	      0.15379743	    -15.45921646	      4.83152861	     -6.90362693	      0.41321517	     10.96528871	    -17.56704158	      0.00000000	     19.47924284	      1.34347932	     -3.42615980	    -20.93831856	      3.52936624	    -19.79799553	      0.00000000	    -17.81102606	     -2.72878822	      0.20933157
      7.39000000	      2.79499991	      1.70949074	      1.64932530	      0.65038940	      1.05206682	      0.15314178	    -16.07626747	      5.14970533	     -6.56223865	      0.19388820	     10.93486764	    -17.28138379	      0.00000000	     18.92951915	      0.75681612	     -4.08289979	    -16.84879383	      3.56819038	    -17.66715047	      0.00000000	    -17.70481705	     -2.26489129	      0.89829398
      7.40000000	      2.79658072	      1.15403925	      1.06944630	      0.66383271	      1.05061546	      0.15236304	    -16.70675594	      5.46722256	     -6.06676227	     -0.11215501	     10.85210732	    -16.98626620	      0.00000000	     18.33884976	      0.15280696	     -4.59244616	    -12.97872282	      3.42642558	    -15.63569557	      0.00000000	    -17.62355849	     -1.71910535	      1.59183740
      7.41000000	      2.83575276	      0.55849503	      0.49299694	      0.67743636	      1.04917997	      0.15142761	    -17.35190346	      5.77727142	     -5.46734193	     -0.50977569	     10.72081855	    -16.66444796	      0.00000000	     17.71285544	     -0.44764413	     -4.76632968	     -9.39668832	      3.01777901	    -13.97968635	      0.00000000	    -17.58822564	     -1.10943966	      2.23595230
      7.42000000	      2.88554946	     -0.03802024	     -0.06358800	      0.69117158	      1.04776967	      0.15034141	    -17.96184452	      6.04840728	     -4.81989522	     -1.02923429	     10.60737367	    -16.32361186	      0.00000000	     17.08855760	     -1.02793108	     -4.53050421	     -6.15977752	      2.34345348	    -12.86163596	      0.00000000	    -17.58316471	     -0.48185896	      2.84330098
